<svg width="500" height="398" viewBox="0 0 500 398" fill="none" xmlns="http://www.w3.org/2000/svg">
<path d="M244.212 190.454V167.486L250.459 164.672L250.574 156.291H242.117C238.959 148.545 231.783 142.969 223.269 142.308V118.273H219.156V142.372C210.962 143.291 204.113 148.769 201.051 156.284H193.126L193.241 164.666L198.956 167.242V190.505H198.969L192.818 194.199L192.703 201.636H250.58L250.465 194.199L244.219 190.448L244.212 190.454ZM233.981 190.159H209.258V167.023H233.981V190.159Z" fill="#F4766C"/>
<path d="M272.836 201.602C267.967 211.358 260.509 219.592 251.367 225.398L259.625 310.059C296.745 299.018 327.452 273.024 344.801 239.041L344.442 239.182L272.836 201.608V201.602Z" fill="#C5EFF9"/>
<path d="M160.037 174.931C160.037 141.969 186.695 115.243 219.574 115.243C244.797 115.243 266.349 130.979 275.017 153.19L349.462 120.966C328.333 69.9104 278.143 34 219.574 34C141.939 34 79 97.0986 79 174.931C79 240.233 123.302 295.149 183.415 311.148L191.564 227.612C172.799 217.567 160.031 197.745 160.031 174.931H160.037Z" fill="#C5EFF9"/>
<path d="M251.372 225.402L249.77 208.953H193.398L191.579 227.612L183.43 311.148C194.968 314.218 207.083 315.862 219.589 315.862C220.248 315.862 220.908 315.856 221.568 315.843H221.6C234.798 315.657 247.553 313.646 259.636 310.056L251.378 225.396L251.372 225.402Z" fill="#F4766C"/>
</svg>
